<?xml version="1.0" encoding="utf-8"?>
<!-- Generator: Adobe Illustrator 19.2.0, SVG Export Plug-In . SVG Version: 6.00 Build 0)  -->
<svg version="1.1" id="Layer_1" xmlns="http://www.w3.org/2000/svg" xmlns:xlink="http://www.w3.org/1999/xlink" x="0px" y="0px"
	 viewBox="0 0 70 70" style="enable-background:new 0 0 70 70;" xml:space="preserve">
<path d="M34.5,67h-0.1c-8.7,0-16.8-3.5-22.9-9.6S2,43.1,2,34.4C2.1,16.5,16.6,2,34.5,2h0.1c8.7,0,16.8,3.4,22.9,9.6
	c6.1,6.2,9.5,14.3,9.4,23C66.9,52.5,52.3,67,34.5,67z M34.5,5C18.3,5,5.1,18.2,5,34.4c0,7.9,3,15.3,8.6,20.9S26.5,64,34.4,64h0.1
	C50.7,64,63.9,50.8,64,34.6c0-7.9-3-15.3-8.6-20.9C49.9,8.1,42.5,5,34.6,5H34.5z"/>
<g>
	<g>
		<path d="M49.6,51.1c-0.4,0-0.8-0.1-1.1-0.4L18.4,20.5c-0.6-0.6-0.6-1.5,0-2.1c0.6-0.6,1.5-0.6,2.1,0l30.2,30.2
			c0.6,0.6,0.6,1.5,0,2.1C50.3,50.9,50,51.1,49.6,51.1z"/>
	</g>
	<g>
		<path d="M19.2,50.8c-0.4,0-0.8-0.2-1.1-0.5c-0.6-0.6-0.6-1.5,0-2.1l30.7-29.6c0.6-0.6,1.5-0.6,2.1,0c0.6,0.6,0.6,1.5,0,2.1
			L20.2,50.4C19.9,50.7,19.5,50.8,19.2,50.8z"/>
	</g>
</g>
</svg>
